<svg xmlns="http://www.w3.org/2000/svg" viewBox="0 0 800 800" width="800" height="800">
  <rect width="800" height="800" fill="#f5f5f0"/>

  <!-- Outer rings of geometric star grid, 3x3 -->
  <g fill="none" stroke="#0a0a0a" stroke-width="1.2">

    <!-- Row 1 -->
    <g transform="translate(133,133)">
      <polygon points="0,-80 18,-25 75,-25 30,10 47,65 0,32 -47,65 -30,10 -75,-25 -18,-25" />
      <polygon points="0,-55 12,-18 52,-18 21,7 32,45 0,22 -32,45 -21,7 -52,-18 -12,-18" />
      <circle cx="0" cy="0" r="20" />
      <line x1="0" y1="-90" x2="0" y2="90" />
      <line x1="-90" y1="0" x2="90" y2="0" />
      <line x1="-64" y1="-64" x2="64" y2="64" />
      <line x1="64" y1="-64" x2="-64" y2="64" />
    </g>

    <g transform="translate(400,133)">
      <polygon points="0,-80 18,-25 75,-25 30,10 47,65 0,32 -47,65 -30,10 -75,-25 -18,-25" />
      <polygon points="0,-55 12,-18 52,-18 21,7 32,45 0,22 -32,45 -21,7 -52,-18 -12,-18" />
      <circle cx="0" cy="0" r="20" />
      <line x1="0" y1="-90" x2="0" y2="90" />
      <line x1="-90" y1="0" x2="90" y2="0" />
      <line x1="-64" y1="-64" x2="64" y2="64" />
      <line x1="64" y1="-64" x2="-64" y2="64" />
    </g>

    <g transform="translate(667,133)">
      <polygon points="0,-80 18,-25 75,-25 30,10 47,65 0,32 -47,65 -30,10 -75,-25 -18,-25" />
      <polygon points="0,-55 12,-18 52,-18 21,7 32,45 0,22 -32,45 -21,7 -52,-18 -12,-18" />
      <circle cx="0" cy="0" r="20" />
      <line x1="0" y1="-90" x2="0" y2="90" />
      <line x1="-90" y1="0" x2="90" y2="0" />
      <line x1="-64" y1="-64" x2="64" y2="64" />
      <line x1="64" y1="-64" x2="-64" y2="64" />
    </g>

    <!-- Row 2 -->
    <g transform="translate(133,400)">
      <polygon points="0,-80 18,-25 75,-25 30,10 47,65 0,32 -47,65 -30,10 -75,-25 -18,-25" />
      <polygon points="0,-55 12,-18 52,-18 21,7 32,45 0,22 -32,45 -21,7 -52,-18 -12,-18" />
      <circle cx="0" cy="0" r="20" />
      <line x1="0" y1="-90" x2="0" y2="90" />
      <line x1="-90" y1="0" x2="90" y2="0" />
      <line x1="-64" y1="-64" x2="64" y2="64" />
      <line x1="64" y1="-64" x2="-64" y2="64" />
    </g>

    <!-- Center - bigger, more detailed -->
    <g transform="translate(400,400)">
      <polygon points="0,-100 22,-31 95,-31 38,12 59,81 0,50 -59,81 -38,12 -95,-31 -22,-31" />
      <polygon points="0,-75 16,-23 71,-23 29,9 44,61 0,37 -44,61 -29,9 -71,-23 -16,-23" />
      <polygon points="0,-50 11,-15 47,-15 19,6 30,41 0,25 -30,41 -19,6 -47,-15 -11,-15" />
      <circle cx="0" cy="0" r="18" />
      <circle cx="0" cy="0" r="8" fill="#0a0a0a" />
      <line x1="0" y1="-110" x2="0" y2="110" />
      <line x1="-110" y1="0" x2="110" y2="0" />
      <line x1="-78" y1="-78" x2="78" y2="78" />
      <line x1="78" y1="-78" x2="-78" y2="78" />
    </g>

    <g transform="translate(667,400)">
      <polygon points="0,-80 18,-25 75,-25 30,10 47,65 0,32 -47,65 -30,10 -75,-25 -18,-25" />
      <polygon points="0,-55 12,-18 52,-18 21,7 32,45 0,22 -32,45 -21,7 -52,-18 -12,-18" />
      <circle cx="0" cy="0" r="20" />
      <line x1="0" y1="-90" x2="0" y2="90" />
      <line x1="-90" y1="0" x2="90" y2="0" />
      <line x1="-64" y1="-64" x2="64" y2="64" />
      <line x1="64" y1="-64" x2="-64" y2="64" />
    </g>

    <!-- Row 3 -->
    <g transform="translate(133,667)">
      <polygon points="0,-80 18,-25 75,-25 30,10 47,65 0,32 -47,65 -30,10 -75,-25 -18,-25" />
      <polygon points="0,-55 12,-18 52,-18 21,7 32,45 0,22 -32,45 -21,7 -52,-18 -12,-18" />
      <circle cx="0" cy="0" r="20" />
      <line x1="0" y1="-90" x2="0" y2="90" />
      <line x1="-90" y1="0" x2="90" y2="0" />
      <line x1="-64" y1="-64" x2="64" y2="64" />
      <line x1="64" y1="-64" x2="-64" y2="64" />
    </g>

    <g transform="translate(400,667)">
      <polygon points="0,-80 18,-25 75,-25 30,10 47,65 0,32 -47,65 -30,10 -75,-25 -18,-25" />
      <polygon points="0,-55 12,-18 52,-18 21,7 32,45 0,22 -32,45 -21,7 -52,-18 -12,-18" />
      <circle cx="0" cy="0" r="20" />
      <line x1="0" y1="-90" x2="0" y2="90" />
      <line x1="-90" y1="0" x2="90" y2="0" />
      <line x1="-64" y1="-64" x2="64" y2="64" />
      <line x1="64" y1="-64" x2="-64" y2="64" />
    </g>

    <g transform="translate(667,667)">
      <polygon points="0,-80 18,-25 75,-25 30,10 47,65 0,32 -47,65 -30,10 -75,-25 -18,-25" />
      <polygon points="0,-55 12,-18 52,-18 21,7 32,45 0,22 -32,45 -21,7 -52,-18 -12,-18" />
      <circle cx="0" cy="0" r="20" />
      <line x1="0" y1="-90" x2="0" y2="90" />
      <line x1="-90" y1="0" x2="90" y2="0" />
      <line x1="-64" y1="-64" x2="64" y2="64" />
      <line x1="64" y1="-64" x2="-64" y2="64" />
    </g>

    <!-- Grid lines connecting centers -->
    <line x1="133" y1="133" x2="667" y2="133" stroke-width="0.5" stroke-dasharray="4,6"/>
    <line x1="133" y1="400" x2="667" y2="400" stroke-width="0.5" stroke-dasharray="4,6"/>
    <line x1="133" y1="667" x2="667" y2="667" stroke-width="0.5" stroke-dasharray="4,6"/>
    <line x1="133" y1="133" x2="133" y2="667" stroke-width="0.5" stroke-dasharray="4,6"/>
    <line x1="400" y1="133" x2="400" y2="667" stroke-width="0.5" stroke-dasharray="4,6"/>
    <line x1="667" y1="133" x2="667" y2="667" stroke-width="0.5" stroke-dasharray="4,6"/>

    <!-- Outer border -->
    <rect x="20" y="20" width="760" height="760" stroke-width="1.5" />
    <rect x="30" y="30" width="740" height="740" stroke-width="0.5" />
  </g>

  <!-- Signature -->
  <text x="400" y="785" text-anchor="middle"
    font-family="serif" font-size="11" fill="#888" letter-spacing="3">
    RAPHAEL PARONE — COURS 1 — DESSINS GÉOMÉTRIQUES
  </text>
</svg>
